<mxfile host="app.diagrams.net" modified="2022-12-08T13:00:50.590Z" agent="5.0 (Windows NT 10.0; Win64; x64) AppleWebKit/537.36 (KHTML, like Gecko) Chrome/103.0.0.0 Safari/537.36" version="20.6.0" etag="euPWnvwmxmRUlvK8sOVG" type="github">
  <diagram id="AUz7Gj3FzF9wRaUNKJIG" name="第 1 页">
    <mxGraphModel dx="2033" dy="1152" grid="1" gridSize="10" guides="1" tooltips="1" connect="1" arrows="1" fold="1" page="1" pageScale="1" pageWidth="827" pageHeight="1169" math="0" shadow="0">
      <root>
        <mxCell id="0" />
        <mxCell id="1" parent="0" />
        <mxCell id="x2S_qAZimC7lY8E_ydXW-1" value="主持人" style="rounded=1;whiteSpace=wrap;html=1;" vertex="1" parent="1">
          <mxGeometry x="50" y="360" width="80" height="40" as="geometry" />
        </mxCell>
        <mxCell id="x2S_qAZimC7lY8E_ydXW-2" value="meeting_control" style="rounded=0;whiteSpace=wrap;html=1;" vertex="1" parent="1">
          <mxGeometry x="290" y="260" width="110" height="50" as="geometry" />
        </mxCell>
        <mxCell id="x2S_qAZimC7lY8E_ydXW-3" value="参会者" style="rounded=1;whiteSpace=wrap;html=1;" vertex="1" parent="1">
          <mxGeometry x="410" y="480" width="80" height="40" as="geometry" />
        </mxCell>
        <mxCell id="x2S_qAZimC7lY8E_ydXW-4" value="" style="curved=1;endArrow=classic;html=1;rounded=0;exitX=1;exitY=0.5;exitDx=0;exitDy=0;entryX=0;entryY=0.5;entryDx=0;entryDy=0;" edge="1" parent="1" source="x2S_qAZimC7lY8E_ydXW-1" target="x2S_qAZimC7lY8E_ydXW-2">
          <mxGeometry width="50" height="50" relative="1" as="geometry">
            <mxPoint x="390" y="460" as="sourcePoint" />
            <mxPoint x="440" y="410" as="targetPoint" />
            <Array as="points">
              <mxPoint x="170" y="300" />
            </Array>
          </mxGeometry>
        </mxCell>
        <mxCell id="x2S_qAZimC7lY8E_ydXW-5" value="" style="curved=1;endArrow=classic;html=1;rounded=0;entryX=0.5;entryY=0;entryDx=0;entryDy=0;" edge="1" parent="1" source="x2S_qAZimC7lY8E_ydXW-14" target="x2S_qAZimC7lY8E_ydXW-3">
          <mxGeometry width="50" height="50" relative="1" as="geometry">
            <mxPoint x="390" y="460" as="sourcePoint" />
            <mxPoint x="440" y="410" as="targetPoint" />
            <Array as="points">
              <mxPoint x="560" y="420" />
              <mxPoint x="460" y="420" />
            </Array>
          </mxGeometry>
        </mxCell>
        <mxCell id="x2S_qAZimC7lY8E_ydXW-6" value="kick_out" style="text;html=1;align=center;verticalAlign=middle;resizable=0;points=[];autosize=1;strokeColor=none;fillColor=none;" vertex="1" parent="1">
          <mxGeometry x="190" y="310" width="70" height="30" as="geometry" />
        </mxCell>
        <mxCell id="x2S_qAZimC7lY8E_ydXW-8" value="&lt;span style=&quot;font-family: Consolas, Consolas, &amp;quot;Courier New&amp;quot;, monospace; text-align: left; background-color: rgb(255, 255, 255);&quot;&gt;&lt;font style=&quot;font-size: 12px;&quot;&gt;KickoutOneVoip&lt;/font&gt;&lt;/span&gt;" style="rounded=0;whiteSpace=wrap;html=1;" vertex="1" parent="1">
          <mxGeometry x="510" y="190" width="110" height="50" as="geometry" />
        </mxCell>
        <mxCell id="x2S_qAZimC7lY8E_ydXW-9" value="&lt;div style=&quot;background-color: rgb(255, 255, 255); font-family: Consolas, Consolas, &amp;quot;Courier New&amp;quot;, monospace; line-height: 24px;&quot;&gt;&lt;font style=&quot;font-size: 12px;&quot;&gt;KickoutOnePstn&lt;/font&gt;&lt;/div&gt;" style="rounded=0;whiteSpace=wrap;html=1;" vertex="1" parent="1">
          <mxGeometry x="530" y="290" width="110" height="50" as="geometry" />
        </mxCell>
        <mxCell id="x2S_qAZimC7lY8E_ydXW-11" value="" style="curved=1;endArrow=classic;html=1;rounded=0;fontSize=12;exitX=1;exitY=0.25;exitDx=0;exitDy=0;entryX=0;entryY=0.5;entryDx=0;entryDy=0;" edge="1" parent="1" source="x2S_qAZimC7lY8E_ydXW-2" target="x2S_qAZimC7lY8E_ydXW-8">
          <mxGeometry width="50" height="50" relative="1" as="geometry">
            <mxPoint x="390" y="460" as="sourcePoint" />
            <mxPoint x="440" y="410" as="targetPoint" />
            <Array as="points">
              <mxPoint x="430" y="230" />
            </Array>
          </mxGeometry>
        </mxCell>
        <mxCell id="x2S_qAZimC7lY8E_ydXW-12" value="" style="curved=1;endArrow=classic;html=1;rounded=0;fontSize=12;exitX=1;exitY=0.75;exitDx=0;exitDy=0;entryX=0;entryY=0.5;entryDx=0;entryDy=0;" edge="1" parent="1" source="x2S_qAZimC7lY8E_ydXW-2" target="x2S_qAZimC7lY8E_ydXW-9">
          <mxGeometry width="50" height="50" relative="1" as="geometry">
            <mxPoint x="390" y="460" as="sourcePoint" />
            <mxPoint x="440" y="410" as="targetPoint" />
            <Array as="points">
              <mxPoint x="460" y="290" />
            </Array>
          </mxGeometry>
        </mxCell>
        <mxCell id="x2S_qAZimC7lY8E_ydXW-13" value="kick_out:push" style="text;html=1;align=center;verticalAlign=middle;resizable=0;points=[];autosize=1;strokeColor=none;fillColor=none;" vertex="1" parent="1">
          <mxGeometry x="515" y="410" width="100" height="30" as="geometry" />
        </mxCell>
        <mxCell id="x2S_qAZimC7lY8E_ydXW-14" value="" style="rounded=0;whiteSpace=wrap;html=1;fontSize=12;fillColor=none;dashed=1;" vertex="1" parent="1">
          <mxGeometry x="445" y="160" width="265" height="190" as="geometry" />
        </mxCell>
      </root>
    </mxGraphModel>
  </diagram>
</mxfile>
